{"title":"Only God Forgives 2013 WEBRip 480p x264 AAC - VYTO [P2PDL]","uid":8712238,"size":317254447,"categoryP":"video","categoryS":"movies","magnet":"?xt=urn:btih:34474934636eb329f6fa2b710f514436e2c50986&amp;dn=Only+God+Forgives+2013+WEBRip+480p+x264+AAC+-+VYTO+%5BP2PDL%5D&amp;tr=udp%3A%2F%2Ftracker.openbittorrent.com%3A80&amp;tr=udp%3A%2F%2Fopen.demonii.com%3A1337&amp;tr=udp%3A%2F%2Ftracker.coppersurfer.tk%3A6969&amp;tr=udp%3A%2F%2Fexodus.desync.com%3A6969","seeders":2,"leechers":0,"uploader":"ValidusVyto","files":-1,"time":1374262237,"description":"_______ Visit us at our Semi Public Bittorrent Community ________\n  &lt;a href=&quot;\nhttp://p2pdl.com&quot; rel=&quot;nofollow&quot; target=&quot;_NEW&quot;&gt;\nhttp://p2pdl.com&lt;/a&gt;  _____________________________ &lt;a href=&quot; http://p2pdl.com&quot; rel=&quot;nofollow&quot; target=&quot;_NEW&quot;&gt; http://p2pdl.com&lt;/a&gt;\n\n\n\nOnly God Forgives 2013 WEBRip 480p x264 AAC - VYTO\n\n\nGenre: Crime | Drama | Thriller\nPlot: Julian, a drug-smuggler thriving in Bangkok's criminal underworld, \nsees his life get even more complicated when his mother compels him to \nfind and kill whoever is responsible for his brother's recent death.\nDirector: Nicolas Winding Refn\nStars: Ryan Gosling, Kristin Scott Thomas, Vithaya Pansringarm.\nRated: Rated R for strong bloody violence including grisly images, \nsexual content and language\n\nInfo: &lt;a href=&quot;\nhttp://www.imdb.com/title/tt1602613/&quot; rel=&quot;nofollow&quot; target=&quot;_NEW&quot;&gt;\nhttp://www.imdb.com/title/tt1602613/&lt;/a&gt;\n\nTrailer:\n\n\nGeneral\nFormat                         : MPEG-4\nFile size                      : 299 MiB\nDuration                       : 1h 29mn\nOverall bit rate mode          : Variable\nOverall bit rate               : 467 Kbps\nSource                         : 720p WEB-DL H 264-PSiG\n\nVideo\nFormat                         : AVC\nFormat profile                 : High &lt;a class=&quot;__cf_email__&quot; href=&quot;/cdn-cgi/l/email-protection&quot; data-cfemail=&quot;a69796e6ea928897&quot;&gt;[email&amp;#160;protected]&lt;/a&gt;&lt;script cf-hash='f9e31' type=&quot;text/javascript&quot;&gt;\n/* &lt;![CDATA[ */!function(){try{var t=&quot;currentScript&quot;in document?document.currentScript:function(){for(var t=document.getElementsByTagName(&quot;script&quot;),e=t.length;e--;)if(t[e].getAttribute(&quot;cf-hash&quot;))return t[e]}();if(t&amp;&amp;t.previousSibling){var e,r,n,i,c=t.previousSibling,a=c.getAttribute(&quot;data-cfemail&quot;);if(a){for(e=&quot;&quot;,r=parseInt(a.substr(0,2),16),n=2;a.length-n;n+=2)i=parseInt(a.substr(n,2),16)^r,e+=String.fromCharCode(i);e=document.createTextNode(e),c.parentNode.replaceChild(e,c)}}}catch(u){}}();/* ]]&gt; */&lt;/script&gt;\nBit rate                       : 424 Kbps\nWidth                          : 720 pixels\nHeight                         : 384 pixels\nDisplay aspect ratio           : 1.85:1\nFrame rate mode                : Constant\nFrame rate                     : 23.976 fps\nBit depth                      : 10 bits\nStream size                    : 271 MiB (91%)\nWriting library                : x264 core 130 r2273 b3065e6\n\nAudio\nFormat                         : AAC\nBit rate                       : 40.0 Kbps\nChannel(s)                     : 2 channels\nChannel positions              : Front: L R\nSampling rate                  : 48.0 KHz / 24.0 KHz\nCompression mode               : Lossy\nStream size                    : 25.6 MiB (9%)\nLanguage                       : English\n\nSubtitle                       : No\n\n &lt;a href=&quot;\nhttp://ultraimg.com/images/ORgs.png&quot; rel=&quot;nofollow&quot; target=&quot;_NEW&quot;&gt;\nhttp://ultraimg.com/images/ORgs.png&lt;/a&gt; &lt;a href=&quot;\nhttp://ultraimg.com/images/LQ8nM.png&quot; rel=&quot;nofollow&quot; target=&quot;_NEW&quot;&gt;\nhttp://ultraimg.com/images/LQ8nM.png&lt;/a&gt; &lt;a href=&quot;\nhttp://ultraimg.com/images/vuTC8.png&quot; rel=&quot;nofollow&quot; target=&quot;_NEW&quot;&gt;\nhttp://ultraimg.com/images/vuTC8.png&lt;/a&gt; &lt;a href=&quot;\nhttp://ultraimg.com/images/G2f6T.png&quot; rel=&quot;nofollow&quot; target=&quot;_NEW&quot;&gt;\nhttp://ultraimg.com/images/G2f6T.png&lt;/a&gt; &lt;a href=&quot;\nhttp://ultraimg.com/images/IXDzj.png&quot; rel=&quot;nofollow&quot; target=&quot;_NEW&quot;&gt;\nhttp://ultraimg.com/images/IXDzj.png&lt;/a&gt;\n\n----------------------------------------------------------------------------------------------------\n\n\nEncoded using revolutionary 10bit encoding, which enables us to provide you more crispier \nand sharper images at small sizes, just make sure you follow our instructions without a fault.\nRecommend to you to use latest version of VLC player. Install K-Lite Codec Pack or shark007 codecs\nin case of any kind of problem in playback (For non-VLC Media Player users). Alternatively, install\nCore AVC codecs, the fastest decoder that there is coupled with Community Center Codec Pack and play\non Windows Media Player Classic. Check sample to be sure.\nEnjoy!\n\nEncoder Notes:Looking For Early Access To Anything You Can Provide DVDScr, R5, DVDR, BluRay, Direct\nAudio, Music Releases and Seedboxes. We require dedicated servers, so as to do more \nand fast releases of movies.\nIf You Got anything to offer please contact us at &quot;&lt;a class=&quot;__cf_email__&quot; href=&quot;/cdn-cgi/l/email-protection&quot; data-cfemail=&quot;e5959782a58d90968dcb868a88&quot;&gt;[email&amp;#160;protected]&lt;/a&gt;&lt;script cf-hash='f9e31' type=&quot;text/javascript&quot;&gt;\n/* &lt;![CDATA[ */!function(){try{var t=&quot;currentScript&quot;in document?document.currentScript:function(){for(var t=document.getElementsByTagName(&quot;script&quot;),e=t.length;e--;)if(t[e].getAttribute(&quot;cf-hash&quot;))return t[e]}();if(t&amp;&amp;t.previousSibling){var e,r,n,i,c=t.previousSibling,a=c.getAttribute(&quot;data-cfemail&quot;);if(a){for(e=&quot;&quot;,r=parseInt(a.substr(0,2),16),n=2;a.length-n;n+=2)i=parseInt(a.substr(n,2),16)^r,e+=String.fromCharCode(i);e=document.createTextNode(e),c.parentNode.replaceChild(e,c)}}}catch(u){}}();/* ]]&gt; */&lt;/script&gt;&quot;.\n\nFace book Fan Page:  \nSearch P2PDL on FB","torrent":{"xt":"urn:btih:34474934636eb329f6fa2b710f514436e2c50986","amp;dn":"Only+God+Forgives+2013+WEBRip+480p+x264+AAC+-+VYTO+%5BP2PDL%5D","amp;tr":["udp%3A%2F%2Ftracker.openbittorrent.com%3A80","udp%3A%2F%2Fopen.demonii.com%3A1337","udp%3A%2F%2Ftracker.coppersurfer.tk%3A6969","udp%3A%2F%2Fexodus.desync.com%3A6969"],"infoHash":"34474934636eb329f6fa2b710f514436e2c50986","infoHashBuffer":{"type":"Buffer","data":[52,71,73,52,99,110,179,41,246,250,43,113,15,81,68,54,226,197,9,134]},"announce":[],"urlList":[]}}